<?xml version="1.0" encoding="UTF-8"?>
<!DOCTYPE svg PUBLIC "-//W3C//DTD SVG 1.1//EN" "http://www.w3.org/Graphics/SVG/1.1/DTD/svg11.dtd">
<svg xmlns="http://www.w3.org/2000/svg" height="429" width="300" version="1.1">
	<!--
		The script at the bottom of this document was used to convert shades of gray from
		the bitmap trace to transparent black. I opened the SVG in Firefox, and then
		copied and pasted the innerHTML of the SVG from Firefox's "Inspect Element"
		feature, manually removed validation errors, then commented out the script.
	-->
	
	<g id="Aliased" shape-rendering="crispEdges">
		<path d="m24.67767 115.33575 96.07143-59.64285" stroke-dashoffset="2.6" stroke="#000" stroke-width="6"/>
		<path d="m113.63778 187.21428c0 21.54051-17.58882 39.00254-39.28572 39.00254s-39.28571-17.46203-39.28571-39.00254 17.58881-39.00254 39.28571-39.00254 39.28572 17.46203 39.28572 39.00254z"/>
		<g transform="translate(-105.14288,-112.1479)">
			<path d="m156.54312 141.38004-1.41504-3.6211h-5.64258l-1.42382 3.6211h-1.74024l5.05371-12.38379h1.90723l4.97461 12.38379zm-3.50683-9.01758c-0.0938-0.23437-0.18312-0.47167-0.26807-0.71192-0.085-0.24022-0.15968-0.45848-0.22412-0.65478-0.0645-0.19628-0.11866-0.36034-0.1626-0.49219-0.0439-0.13182-0.0688-0.21239-0.0747-0.2417-0.0117 0.0293-0.0381 0.11134-0.0791 0.2461-0.041 0.13477-0.0952 0.30176-0.1626 0.50097-0.0674 0.19923-0.14356 0.41896-0.22851 0.65918-0.085 0.24025-0.17139 0.47755-0.25928 0.71192l-1.58203 4.06933h4.63184z"/>
			<path d="m159.52261 141.38004v-13.04297h1.58203v13.04297z"/>
			<path d="m163.52164 129.84879v-1.51172h1.58203v1.51172zm0 11.53125v-9.50977h1.58203v9.50977z"/>
			<path d="m169.96402 141.55582c-0.95508 0-1.67285-0.25196-2.15332-0.75586-0.48047-0.50391-0.7207-1.19531-0.7207-2.07422 0-0.62695 0.11865-1.14111 0.35595-1.54248 0.23731-0.40136 0.54785-0.71631 0.93164-0.94483 0.38379-0.22851 0.82178-0.38671 1.31397-0.47461 0.49218-0.0879 0.99316-0.13769 1.50293-0.14941l2.13574-0.0352v-0.51855c-0.00001-0.39257-0.041-0.72656-0.12305-1.00195-0.082-0.27539-0.20801-0.49804-0.37793-0.66797-0.16992-0.16992-0.38233-0.29443-0.6372-0.37354-0.25489-0.0791-0.55518-0.11864-0.90088-0.11865-0.30469 0.00001-0.58008 0.022-0.82617 0.0659-0.2461 0.044-0.45997 0.12305-0.64161 0.2373-0.18164 0.11427-0.32812 0.26954-0.43945 0.46582-0.11133 0.1963-0.18457 0.44386-0.21972 0.74268l-1.65235-0.14942c0.0586-0.37499 0.16992-0.71923 0.33399-1.03271 0.16406-0.31347 0.39697-0.58446 0.69873-0.81299 0.30175-0.2285 0.67968-0.40575 1.13379-0.53174 0.45409-0.12596 1.00341-0.18895 1.64794-0.18896 1.19531 0.00001 2.09472 0.27393 2.69825 0.82178 0.6035 0.54786 0.90526 1.34034 0.90527 2.37744v4.0957c-0.00001 0.46875 0.0615 0.82178 0.18457 1.05908 0.12304 0.23731 0.35741 0.35596 0.70313 0.35596 0.0879 0 0.17577-0.006 0.26367-0.0176 0.0879-0.0117 0.17284-0.0264 0.25488-0.0439v0.98437c-0.19923 0.0469-0.39698 0.082-0.59326 0.10547-0.1963 0.0234-0.40577 0.0352-0.62842 0.0352-0.29884 0-0.55518-0.0395-0.76904-0.11866-0.21388-0.0791-0.38819-0.19921-0.52295-0.36035-0.13477-0.16113-0.23731-0.36035-0.30762-0.59765-0.0703-0.23731-0.11426-0.51416-0.13183-0.83057h-0.0527c-0.16993 0.30469-0.35596 0.58008-0.5581 0.82617-0.20216 0.2461-0.438 0.45557-0.70752 0.62842-0.26954 0.17285-0.57569 0.30615-0.91846 0.3999-0.34278 0.0937-0.73682 0.14063-1.18213 0.14063zm0.36035-1.18653c0.5039 0 0.94482-0.0923 1.32276-0.27685 0.37792-0.18457 0.6914-0.42041 0.94042-0.70752s0.43506-0.60059 0.55811-0.94043c0.12304-0.33984 0.18456-0.66504 0.18457-0.97559v-0.78222l-1.73144 0.0352c-0.38673 0.006-0.7544 0.0337-1.10303 0.0835-0.34864 0.0498-0.65479 0.14795-0.91846 0.29443-0.26367 0.14649-0.47315 0.35157-0.62842 0.61524s-0.23291 0.60937-0.23291 1.03711c0 0.51562 0.13916 0.91406 0.41748 1.19531s0.67529 0.42187 1.19092 0.42187z"/>
			<path d="m184.69449 138.75211c-0.00001 0.44531-0.0864 0.84228-0.25928 1.19091-0.17286 0.34864-0.42335 0.64161-0.75146 0.87891-0.32814 0.2373-0.73097 0.41895-1.2085 0.54492-0.47754 0.12598-1.02393 0.18897-1.63916 0.18897-0.55079 0-1.04737-0.0425-1.48975-0.12744-0.44238-0.085-0.83056-0.2212-1.16455-0.4087-0.33398-0.1875-0.61377-0.43505-0.83935-0.74267-0.22559-0.30762-0.39112-0.68408-0.49658-1.1294l1.39746-0.27246c0.13476 0.50977 0.41308 0.8833 0.83496 1.12061 0.42187 0.2373 1.00781 0.35596 1.75781 0.35596 0.33984 0 0.65185-0.0234 0.93604-0.0703 0.28417-0.0469 0.5288-0.12744 0.73388-0.2417 0.20507-0.11425 0.36474-0.2666 0.47901-0.45703 0.11425-0.19043 0.17138-0.42627 0.17138-0.70752 0-0.2871-0.0674-0.52294-0.20215-0.70752-0.13477-0.18456-0.32227-0.33837-0.5625-0.46142-0.24024-0.12305-0.53174-0.22998-0.87451-0.3208-0.34278-0.0908-0.71924-0.19189-1.12939-0.30323-0.38087-0.0996-0.75879-0.21093-1.13379-0.33398-0.375-0.12304-0.71338-0.28564-1.01514-0.48779s-0.54639-0.45263-0.73388-0.75147c-0.18751-0.29882-0.28126-0.67382-0.28125-1.125-0.00001-0.86718 0.30908-1.52782 0.92724-1.98193 0.61816-0.45409 1.51904-0.68114 2.70264-0.68115 1.04882 0.00001 1.88232 0.18458 2.50049 0.55371 0.61815 0.36915 1.00927 0.96094 1.17334 1.77539l-1.42383 0.17578c-0.0527-0.24609-0.14942-0.45263-0.29004-0.61963-0.14063-0.16698-0.31055-0.30175-0.50977-0.4043-0.19922-0.10253-0.42334-0.17577-0.67236-0.21972-0.24903-0.0439-0.50831-0.0659-0.77783-0.0659-0.71485 0.00001-1.24219 0.10841-1.58203 0.32519-0.33985 0.21681-0.50977 0.54493-0.50977 0.98438 0 0.25782 0.063 0.47022 0.18897 0.63721s0.30175 0.30762 0.52734 0.42187c0.22558 0.11426 0.49658 0.21387 0.81299 0.29883 0.3164 0.085 0.66503 0.17432 1.0459 0.26807 0.25194 0.0644 0.50976 0.1333 0.77343 0.20654 0.26367 0.0733 0.52002 0.16114 0.76905 0.26367 0.24901 0.10254 0.48339 0.22266 0.70312 0.36035 0.21972 0.1377 0.41162 0.30323 0.57569 0.49658 0.16405 0.19337 0.29442 0.41895 0.39111 0.67676 0.0967 0.25782 0.14501 0.55664 0.14502 0.89649z"/>
			<path d="m187.77066 136.95914c0 0.49805 0.0513 0.95654 0.15381 1.37549 0.10254 0.41894 0.26074 0.77929 0.47461 1.08105 0.21386 0.30176 0.48779 0.53613 0.82178 0.70312 0.33398 0.167 0.73534 0.25049 1.2041 0.25049 0.68554 0 1.23485-0.13769 1.64795-0.41308 0.41308-0.27539 0.69286-0.62402 0.83935-1.0459l1.38867 0.39551c-0.0996 0.26367-0.23877 0.52881-0.41748 0.79541-0.17872 0.2666-0.41749 0.50683-0.71631 0.7207-0.29883 0.21387-0.67237 0.38965-1.1206 0.52734-0.44825 0.1377-0.98878 0.20655-1.62158 0.20655-1.40626 0-2.47706-0.41895-3.21241-1.25684s-1.10302-2.083-1.10302-3.73535c0-0.89062 0.11132-1.64501 0.33398-2.26318 0.22266-0.61816 0.52734-1.1206 0.91406-1.50733 0.38672-0.38671 0.83789-0.66649 1.35352-0.83935 0.51562-0.17285 1.0664-0.25927 1.65234-0.25928 0.79687 0.00001 1.46338 0.12891 1.99952 0.38672 0.53612 0.25782 0.96678 0.61378 1.29199 1.06787 0.32518 0.45411 0.55663 0.98878 0.69433 1.604 0.13769 0.61524 0.20654 1.28028 0.20655 1.99512v0.21094zm5.15039-1.21289c-0.0879-1.00195-0.34278-1.73291-0.76465-2.19287-0.42188-0.45996-1.02832-0.68994-1.81933-0.68995-0.26368 0.00001-0.54054 0.0425-0.83057 0.12745-0.29004 0.085-0.55811 0.23584-0.8042 0.45263-0.2461 0.21681-0.4541 0.51124-0.62402 0.8833-0.16993 0.37208-0.26661 0.84522-0.29004 1.41944z"/>
			<path d="m202.58023 139.85074c-0.29297 0.60937-0.68116 1.0459-1.16455 1.30957-0.4834 0.26367-1.08252 0.39551-1.79736 0.39551-1.20118 0-2.08448-0.4043-2.64991-1.21289-0.56543-0.8086-0.84814-2.0332-0.84814-3.67383 0-3.3164 1.16601-4.9746 3.49805-4.97461 0.72069 0.00001 1.32128 0.13184 1.80175 0.39551 0.48047 0.26368 0.86719 0.68262 1.16016 1.25683h0.0176c-0.00001-0.0586-0.001-0.15087-0.004-0.27685-0.003-0.12597-0.006-0.25781-0.009-0.39551-0.003-0.13769-0.004-0.26806-0.004-0.39111-0.00001-0.12304-0.00001-0.21093 0-0.26368v-3.68261h1.58203v11.083c-0.00001 0.22852 0.001 0.44825 0.004 0.65918 0.003 0.21094 0.007 0.4043 0.0132 0.58008 0.006 0.17578 0.0117 0.32666 0.0176 0.45264 0.006 0.12598 0.0117 0.21533 0.0176 0.26807h-1.51172c-0.0117-0.0586-0.022-0.14209-0.0308-0.25049-0.009-0.1084-0.0176-0.23291-0.0264-0.37354-0.009-0.14062-0.0161-0.28857-0.022-0.44385-0.006-0.15527-0.009-0.30908-0.009-0.46142zm-4.79883-3.23438c0 0.65626 0.041 1.21876 0.12305 1.6875 0.082 0.46876 0.21386 0.85401 0.39551 1.15577 0.18163 0.30175 0.41308 0.52295 0.69433 0.66357 0.28125 0.14063 0.62402 0.21094 1.02832 0.21094 0.41601 0 0.78369-0.0674 1.10303-0.20215 0.31933-0.13477 0.58593-0.35303 0.79981-0.65479 0.21386-0.30175 0.37645-0.69579 0.48779-1.18213 0.11132-0.48632 0.16698-1.08105 0.16699-1.78418-0.00001-0.67382-0.0557-1.24364-0.16699-1.70947-0.11134-0.46581-0.2754-0.84228-0.49219-1.12939-0.2168-0.2871-0.48194-0.49365-0.79541-0.61963-0.31348-0.12597-0.6753-0.18896-1.08545-0.18897-0.38672 0.00001-0.72071 0.0674-1.00195 0.20215-0.28125 0.13478-0.51563 0.35157-0.70313 0.65039-0.1875 0.29884-0.32666 0.68702-0.41748 1.16455-0.0908 0.47755-0.13623 1.05616-0.13623 1.73584z"/>
		</g>
		<path d="m2.14286 378.71428v-28h8v-8h8v-8h16v-8h16v-8h8v-8h16v-8h8v-8h16v-8h16v-8h8v-8h16v-8h8v56h-8v8h-16v8h-8v8h-16v8h-8v8h-16v8h-16v8h-8v8h-16v8h-8v8h-16v8h-8v-28z"/>
	</g>
	<path d="m150.56793 9.41763v419.74331z" stroke="#ccc" stroke-width="1.14765716" fill="none"/>
	<g id="Anti-Aliased">
		<path d="m170.67767 115.33575 96.07143-59.64285" stroke-dashoffset="2.6" stroke="#000" stroke-width="6"/>
		<path d="m262.14286 187.21428a39.285715 39.002539 0 0 1 -78.57143 0 39.285715 39.002539 0 1 1 78.57143 0z"/>
		<text font-size="18px" style="word-spacing:0px;letter-spacing:0px" y="29.17345" x="173.83777" font-family="Liberation Sans" xml:space="preserve"  fill-opacity="1"><tspan y="29.17345" x="173.83777">Anti-Aliased</tspan></text>
		<g id="aa-line-zoom" shape-rendering="crispEdges">
			<path  d="m198.11761 392.45291h-4v-4-4h4 4v4 4h-4zm64-40h-4v-4-4h4 4v4 4h-4zm32-88h-4v-4-4h4 4v4 4h-4z" fill-opacity="0.00392156862745098"/>
			<path  d="m166.11761 344.45291h-4v-4-4h4 4v4 4h-4zm64-40h-4v-4-4h4 4v4 4h-4z" fill-opacity="0.011764705882352941"/>
			<path  d="m158.11761 416.45291h-4v-4-4h4 4v4 4h-4z" fill-opacity="0.0196078431372549"/>
			<path  d="m222.11761 376.45291h-4v-4-4h4 4v4 4h-4zm48-96h-4v-4-4h4 4v4 4h-4z" fill-opacity="0.03529411764705882"/>
			<path  d="m286.11761 336.45291h-4v-4-4h4 4v4 4h-4z" fill-opacity="0.0392156862745098"/>
			<path  d="m206.11761 320.45291h-4v-4-4h4 4v4 4h-4z" fill-opacity="0.047058823529411764"/>
			<path  d="m182.11761 400.45291h-4v-4-4h4 4v4 4h-4z" fill-opacity="0.07058823529411765"/>
			<path  d="m246.11761 296.45291h-4v-4-4h4 4v4 4h-4z" fill-opacity="0.09019607843137255"/>
			<path  d="m246.11761 360.45291h-4v-4-4h4 4v4 4h-4z" fill-opacity="0.09411764705882353"/>
			<path  d="m182.11761 336.45291h-4v-4-4h4 4v4 4h-4z" fill-opacity="0.11764705882352941"/>
			<path  d="m206.11761 384.45291h-4v-4-4h4 4v4 4h-4z" fill-opacity="0.14901960784313725"/>
			<path  d="m286.11761 272.45291h-4v-4-4h4 4v4 4h-4z" fill-opacity="0.1607843137254902"/>
			<path  d="m270.11761 344.45291h-4v-4-4h4 4v4 4h-4z" fill-opacity="0.1843137254901961"/>
			<path  d="m222.11761 312.45291h-4v-4-4h4 4v4 4h-4z" fill-opacity="0.2"/>
			<path  d="m158.11761 352.45291h-4v-4-4h4 4v4 4h-4z" fill-opacity="0.2196078431372549"/>
			<path  d="m166.11761 408.45291h-4v-4-4h4 4v4 4h-4z" fill-opacity="0.24313725490196078"/>
			<path  d="m230.11761 368.45291h-4v-4-4h4 4v4 4h-4z" fill-opacity="0.2549019607843137"/>
			<path  d="m262.11761 288.45291h-4v-4-4h4 4v4 4h-4z" fill-opacity="0.27450980392156865"/>
			<path  d="m294.11761 328.45291h-4v-4-4h4 4v4 4h-4z" fill-opacity="0.30196078431372547"/>
			<path  d="m198.11761 328.45291h-4v-4-4h4 4v4 4h-4z" fill-opacity="0.3254901960784314"/>
			<path  d="m190.11761 392.45291h-4v-4-4h4 4v4 4h-4zm64-40h-4v-4-4h4 4v4 4h-4z" fill-opacity="0.3686274509803922"/>
			<path  d="m238.11761 304.45291h-4v-4-4h4 4v4 4h-4z" fill-opacity="0.43529411764705883"/>
			<path  d="m174.11761 344.45291h-4v-4-4h4 4v4 4h-4z" fill-opacity="0.4666666666666667"/>
			<path  d="m214.11761 376.45291h-4v-4-4h4 4v4 4h-4z" fill-opacity="0.5019607843137255"/>
			<path  d="m278.11761 336.45291h-4v-4-4h4 4v4 4h-4zm0-56h-4v-4-4h4 4v4 4h-4z" fill-opacity="0.5333333333333333"/>
			<path  d="m214.11761 320.45291h-4v-4-4h4 4v4 4h-4z" fill-opacity="0.5686274509803921"/>
			<path  d="m174.11761 400.45291h-4v-4-4h4 4v4 4h-4z" fill-opacity="0.6"/>
			<path  d="m238.11761 360.45291h-4v-4-4h4 4v4 4h-4z" fill-opacity="0.6352941176470588"/>
			<path  d="m254.11761 296.45291h-4v-4-4h4 4v4 4h-4z" fill-opacity="0.6666666666666666"/>
			<path  d="m190.11761 336.45291h-4v-4-4h4 4v4 4h-4z" fill-opacity="0.7019607843137254"/>
			<path  d="m198.11761 384.45291h-4v-4-4h4 4v4 4h-4z" fill-opacity="0.7372549019607844"/>
			<path  d="m294.11761 272.45291h-4v-4-4h4 4v4 4h-4z" fill-opacity="0.7568627450980392"/>
			<path  d="m262.11761 344.45291h-4v-4-4h4 4v4 4h-4z" fill-opacity="0.7803921568627451"/>
			<path  d="m230.11761 312.45291h-4v-4-4h4 4v4 4h-4z" fill-opacity="0.8"/>
			<path  d="m166.11761 352.45291h-4v-4-4h4 4v4 4h-4z" fill-opacity="0.8156862745098039"/>
			<path  d="m158.11761 408.45291h-4v-4-4h4 4v4 4h-4z" fill-opacity="0.8352941176470589"/>
			<path  d="m222.11761 368.45291h-4v-4-4h4 4v4 4h-4z" fill-opacity="0.8470588235294118"/>
			<path  d="m270.11761 288.45291h-4v-4-4h4 4v4 4h-4z" fill-opacity="0.8627450980392157"/>
			<path  d="m286.11761 328.45291h-4v-4-4h4 4v4 4h-4z" fill-opacity="0.8784313725490196"/>
			<path  d="m206.11761 328.45291h-4v-4-4h4 4v4 4h-4z" fill-opacity="0.8941176470588236"/>
			<path  d="m182.11761 392.45291h-4v-4-4h4 4v4 4h-4z" fill-opacity="0.9176470588235294"/>
			<path  d="m246.11761 352.45291h-4v-4-4h4 4v4 4h-4z" fill-opacity="0.9294117647058824"/>
			<path  d="m246.11761 304.45291h-4v-4-4h4 4v4 4h-4z" fill-opacity="0.9372549019607843"/>
			<path  d="m182.11761 344.45291h-4v-4-4h4 4v4 4h-4z" fill-opacity="0.9607843137254902"/>
			<path  d="m206.11761 376.45291h-4v-4-4h4 4v4 4h-4z" fill-opacity="0.9725490196078431"/>
			<path  d="m270.11761 336.45291h-4v-4-4h4 4v4 4h-4zm-48-16h-4v-4-4h4 4v4 4h-4zm64-40h-4v-4-4h4 4v4 4h-4z" fill-opacity="0.984313725490196"/>
			<path  d="m158.11761 360.45291h-4v-4-4h4 4v4 4h-4z" fill-opacity="0.9921568627450981"/>
			<path  d="m166.11551 400.45312h-4v-4-4h4 4v4 4h-4z" fill-opacity="0.996078431372549"/>
			<path d="m158.11761 400.45291h-4v-20-20h4 4v-4-4h4 4v-4-4h8 8v-4-4h4 4v-4-4h8 8v-4-4h8 8v-4-4h4 4v-4-4h8 8v-4-4h4 4v-4-4h8 8v-4-4h8 8v-4-4h4 4v24 24h-8-8v4 4h-8-8v4 4h-4-4v4 4h-8-8v4 4h-4-4v4 4h-8-8v4 4h-8-8v4 4h-4-4v4 4h-8-8v4 4h-8-8v4 4h-4z"/>
		</g>
	</g>
	<!--
	<script type="text/javascript">
		//<![CDATA[
		//See note on top of document for what this section does and why it is commented out.
		
			allElements = document.querySelectorAll("[fill]");
			for(var i = 0; i < allElements.length; i++) { 
				var element = allElements[i]; 
				var color = element.getAttribute("fill");
				if (color != "none") {
					var alpha = color.substr(1,2)
					alpha = 0xff - parseInt("0x" + alpha)
					alpha = alpha / 0xff
					element.setAttribute("fill", "#000");	
					element.setAttribute("fill-opacity", alpha);
				}
			}
		]]>
	</script>
	-->
</svg>
